<svg id="Layer_1" data-name="Layer 1" xmlns="http://www.w3.org/2000/svg" viewBox="0 0 24 24">
  <defs>
    <style>.cls-1{fill:#ad976e;}</style></defs>
    <title>Artboard 3</title>
    <path class="cls-1" d="M21,12.52H17v-2a5,5,0,0,0,4,2,.5.5,0,0,0,0-1,4,4,0,0,1-4-4,.5.5,0,0,0-1,0,4,4,0,0,1-8,0,.5.5,0,0,0-1,0,4,4,0,0,1-4,4,.5.5,0,0,0,0,1,5,5,0,0,0,4-2v2H3a.5.5,0,0,0-.5.5.5.5,0,0,0,.5.5H7v3a.5.5,0,0,0,1,0v-3h8v3a.5.5,0,0,0,1,0v-3h4a.5.5,0,0,0,.5-.5A.5.5,0,0,0,21,12.52Zm-13,0v-2a5,5,0,0,0,8,0v2Z"/>
  </svg>
