<svg id="Layer_1" data-name="Layer 1" xmlns="http://www.w3.org/2000/svg" viewBox="0 0 24 24">
  <defs>
    <style>.cls-1{fill:#ad976e;}</style></defs>
    <title>Artboard 2</title>
    <path class="cls-1" d="M14.25,17H9.75a.5.5,0,0,1-.47-.34L6.92,9.54a.5.5,0,0,1,.47-.66H8.55l-.5-1.19a.52.52,0,0,1,0-.47A.5.5,0,0,1,8.52,7h7a.5.5,0,0,1,.42.22.52.52,0,0,1,0,.47l-.5,1.19h1.16a.5.5,0,0,1,.47.66l-2.36,7.12A.49.49,0,0,1,14.25,17Zm-4.14-1h3.78l2-6.12H14.7a.51.51,0,0,1-.42-.22.49.49,0,0,1,0-.47L14.73,8H9.27l.49,1.19a.49.49,0,0,1,0,.47.51.51,0,0,1-.42.22H8.08Z"/>
  </svg>
