<svg id="Layer_1" data-name="Layer 1" xmlns="http://www.w3.org/2000/svg" viewBox="0 0 24 24"><defs>
  <style>.cls-1{fill:#ad976e;}</style></defs>
  <title>Artboard 4</title>
  <path class="cls-1" d="M8.39,14.69a.5.5,0,0,0,0,1h7.22a.5.5,0,0,0,0-1h-.29V10h.23A.5.5,0,0,0,16,9.74a.52.52,0,0,0,0-.5,4.57,4.57,0,0,0-8,0,.5.5,0,0,0,0,.5.5.5,0,0,0,.43.25h.23v4.7Zm2.85,0V10h1.52v4.7Zm3.08,0h-.56V10h.56ZM12,7.9A3.54,3.54,0,0,1,14.56,9H9.44A3.54,3.54,0,0,1,12,7.9ZM9.68,10h.56v4.7H9.68Zm7.14,6.61a.5.5,0,0,1-.5.5H7.68a.5.5,0,0,1-.5-.5.51.51,0,0,1,.5-.5h8.64A.51.51,0,0,1,16.82,16.6Z"/>
</svg>
