<svg id="Layer_1" data-name="Layer 1" xmlns="http://www.w3.org/2000/svg" viewBox="0 0 24 56">
  <defs><style>.cls-1{fill:#ad976e;}</style></defs>
  <title>Artboard 4 copy 2</title>
  <path class="cls-1" d="M21.5,3.31a.5.5,0,0,1-.5.5,8.51,8.51,0,0,0-8.19,6.26,8.34,8.34,0,0,1,7.07-3.93.5.5,0,0,1,.5.5.51.51,0,0,1-.5.5,7.37,7.37,0,0,0-7.15,5.59,7.21,7.21,0,0,1,6-3.27.5.5,0,0,1,0,1,6.27,6.27,0,0,0-6.11,4.93,6.1,6.1,0,0,1,5-2.61.5.5,0,0,1,.5.5.5.5,0,0,1-.5.5,5.13,5.13,0,0,0-5,4.23,5,5,0,0,1,3.91-1.9.5.5,0,0,1,.5.5.5.5,0,0,1-.5.5,4,4,0,0,0-4,4v28A1.45,1.45,0,0,1,14,47.93a1.58,1.58,0,0,1,1.67,1.59c0,1-.77,1.54-1.75,1.86s-1.67.69-1.82,1.81H12c-.15-1.12-.72-1.44-1.81-1.81s-1.76-.81-1.76-1.86a1.58,1.58,0,0,1,1.68-1.59,1.44,1.44,0,0,1,1.44,1.12V21.11a4,4,0,0,0-4-4,.5.5,0,0,1-.5-.5.5.5,0,0,1,.5-.5A5,5,0,0,1,11.41,18a5.13,5.13,0,0,0-5-4.23.5.5,0,0,1-.5-.5.5.5,0,0,1,.5-.5,6.1,6.1,0,0,1,5,2.61,6.27,6.27,0,0,0-6.11-4.93.5.5,0,0,1,0-1,7.21,7.21,0,0,1,6,3.27A7.37,7.37,0,0,0,4.12,7.14a.51.51,0,0,1-.5-.5.5.5,0,0,1,.5-.5,8.34,8.34,0,0,1,7.07,3.93A8.51,8.51,0,0,0,3,3.81a.5.5,0,0,1-.5-.5.5.5,0,0,1,.5-.5,9.52,9.52,0,0,1,9,6.46,9.52,9.52,0,0,1,9-6.46A.5.5,0,0,1,21.5,3.31Z"/></svg>
